<?xml version="1.0" encoding="UTF-8"?>
<svg id="behance-logo" xmlns="http://www.w3.org/2000/svg" version="1.1" viewBox="0 0 50.99 32">
  <!-- Generator: Adobe Illustrator 29.6.1, SVG Export Plug-In . SVG Version: 2.1.1 Build 9)  -->
  <path d="M20.66,14.27s4.66-1.5,4.14-7.48C24.29.81,18.3,0,15.42,0H0v31.42h16.74c4.78-.69,9.78-3.05,9.55-9.5-.23-6.44-5.64-7.65-5.64-7.65ZM6.9,5.41h7.08c2.93,0,4.32,1.67,4.09,4.03-.23,2.36-2.47,3.22-3.57,3.22h-7.6v-7.25ZM14.73,26.07h-7.83v-8.69h7.65c2.36,0,4.6.92,4.83,4.32.23,3.39-2.88,4.37-4.66,4.37ZM46.38,10.07c-5.47-3.8-11.28-1.38-13.01-.23s-5.7,4.66-5.01,11.8c.69,7.14,5.93,9.32,8.29,10.01,2.36.69,11.28,1.21,13.87-7.25h-5.48s-1.42,3.11-4.96,2.85-5.17-1.47-5.49-5.78h16.34s.92-7.6-4.55-11.4ZM34.56,17.67s-.09-4.96,5.27-4.96c4.75,0,4.92,4.96,4.92,4.96h-10.19Z"/>
  <rect x="33.32" y="1.96" width="12.6" height="3.17"/>
</svg>