<?xml version="1.0" encoding="UTF-8"?>
<svg xmlns="http://www.w3.org/2000/svg" xmlns:xlink="http://www.w3.org/1999/xlink" version="1.1" viewBox="0 0 32 32">
  <!-- Generator: Adobe Illustrator 29.6.1, SVG Export Plug-In . SVG Version: 2.1.1 Build 9)  -->
  <defs>
    <style>
      .st0 {
        fill: none;
      }

      .st1, .st2 {
        fill: #fff;
      }

      .st1, .st3 {
        fill-rule: evenodd;
      }

      .st3 {
        fill: url(#linear-gradient);
      }
    </style>
    <linearGradient id="linear-gradient" x1="5209.99" y1="-4872.37" x2="4992.01" y2="-5265.62" gradientTransform="translate(-473.69 -470.62) scale(.1 -.1)" gradientUnits="userSpaceOnUse">
      <stop offset="0" stop-color="#4845a2"/>
      <stop offset=".28" stop-color="#a844a1"/>
      <stop offset=".3" stop-color="#a844a1"/>
      <stop offset=".38" stop-color="#a844a1"/>
      <stop offset=".6" stop-color="#d7233e"/>
      <stop offset=".6" stop-color="#d7233e"/>
      <stop offset=".87" stop-color="#f8a325"/>
      <stop offset="1" stop-color="#f8dd25"/>
    </linearGradient>
  </defs>
  <g id="instagram" image-rendering="optimizeQuality" shape-rendering="geometricPrecision" text-rendering="geometricPrecision">
    <g>
      <rect class="st0" x="-9.28" y="-9.28" width="50.57" height="50.57"/>
      <path class="st3" d="M7.27.09h17.45c3.9,0,7.09,3.19,7.09,7.09v17.63c0,3.9-3.19,7.1-7.09,7.1H7.27c-3.9,0-7.09-3.19-7.09-7.1V7.18C.19,3.28,3.38.09,7.27.09h0Z"/>
      <path class="st1" d="M21.8,5.42h-11.6c-2.59,0-4.71,2.12-4.71,4.71v11.72c0,2.59,2.12,4.71,4.71,4.71h11.6c2.59,0,4.71-2.12,4.71-4.71v-11.72c0-2.59-2.12-4.71-4.71-4.71h0ZM24.57,20.77h0c0,2.11-1.73,3.84-3.84,3.84h-9.45c-2.11,0-3.84-1.73-3.84-3.84v-9.54c0-2.11,1.72-3.84,3.84-3.84h9.45c2.11,0,3.84,1.72,3.84,3.84v9.54Z"/>
      <path class="st2" d="M16,10.78c-2.87,0-5.21,2.35-5.21,5.22s2.34,5.21,5.21,5.21,5.22-2.34,5.22-5.21-2.35-5.22-5.22-5.22ZM16,19.45h0c-1.9,0-3.45-1.55-3.45-3.45s1.55-3.45,3.45-3.45,3.45,1.55,3.45,3.45-1.55,3.45-3.45,3.45Z"/>
      <path class="st1" d="M26.51,5.39c.59,0,1.07-.48,1.07-1.06s-.48-1.07-1.07-1.07-1.06.48-1.06,1.07.48,1.06,1.06,1.06Z"/>
    </g>
  </g>
</svg>